<svg width="120" height="120" viewBox="0 0 120 120" fill="none" xmlns="http://www.w3.org/2000/svg">
<path d="M96.4287 101.464C96.3429 98.7424 95.7001 92.4209 91.6072 88.3495C86.2929 83.0352 77.1429 83.5281 77.1429 83.5281C77.1429 83.5281 76.6287 92.6567 81.9644 97.9924C87.2787 103.307 96.4287 102.814 96.4287 102.814C96.4287 102.814 105.557 103.328 110.893 97.9924C116.207 92.6781 115.714 83.5281 115.714 83.5281C115.714 83.5281 106.586 83.0138 101.25 88.3495C97.1572 92.4424 96.5144 98.7424 96.4287 101.464Z" fill="#35B5B4"/>
<path d="M90.0215 81.9834C91.6501 82.8191 93.2358 83.8906 94.6501 85.3049C95.3143 85.9691 95.9143 86.6977 96.4286 87.4477C96.9643 86.6977 97.5429 85.9906 98.2072 85.3049C99.6215 83.8906 101.207 82.8191 102.836 81.9834C100.736 76.4977 96.4286 72.6191 96.4286 72.6191C96.4286 72.6191 92.1215 76.4763 90.0215 81.9834Z" fill="#35B5B4"/>
<path d="M117.857 102.814H81.0857C80.3357 102.279 79.6286 101.7 78.9429 101.014C72.3429 94.4143 72.8571 83.7429 72.8786 83.2929L73.0929 79.4786L76.9286 79.2429C76.9286 79.2429 77.25 79.2429 77.8071 79.2429C79.5429 79.2429 82.6714 79.4357 86.0357 80.4429C88.5 74.0786 93.3 69.7071 93.5786 69.45L96.4286 66.9V36.6643C96.4286 35.3786 95.3143 34.3929 94.05 34.5429L79.2857 36.1929V25.4357C83.3143 24.4714 86.3357 20.85 86.3357 16.5214C86.3357 8.61429 77.1429 0 77.1429 0C77.1429 0 67.95 8.61429 67.95 16.5214C67.95 20.85 70.95 24.45 75 25.4357V36.6643L59.7643 38.3571C58.6714 38.4857 57.8571 39.3857 57.8571 40.4786V59.9786C64.95 59.9786 70.7143 65.7429 70.7143 72.8357C70.7143 77.3143 68.4214 81.2357 64.95 83.55C68.4214 85.8643 70.7143 89.7857 70.7143 94.2643C70.7143 97.5643 69.45 100.564 67.4143 102.836H57.8571C62.5929 102.836 66.4286 99 66.4286 94.2643C66.4286 89.5286 62.5929 85.6929 57.8571 85.6929H20.3571C18.5786 85.6929 17.1429 87.1286 17.1429 88.9071C17.1429 90.6857 18.5786 92.1214 20.3571 92.1214H55.7143C56.8929 92.1214 57.8571 93.0857 57.8571 94.2643C57.8571 95.4429 56.8929 96.4071 55.7143 96.4071H20.3571C16.2214 96.4071 12.8571 93.0429 12.8571 88.9071C12.8571 87.8143 13.1143 86.7857 13.5214 85.8429C9.49286 86.55 6.42857 90.0429 6.42857 94.2643C6.42857 99 10.2643 102.836 15 102.836H2.14286C0.964286 102.836 0 103.8 0 104.979V109.264C0 110.443 0.964286 111.407 2.14286 111.407H8.57143V119.979H17.1429V111.407H102.857V119.979H111.429V111.407H117.857C119.036 111.407 120 110.443 120 109.264V104.979C120 103.8 119.036 102.836 117.857 102.836V102.814Z" fill="#35B5B4"/>
<path d="M15 81.385H57.8571C62.5928 81.385 66.4285 77.5493 66.4285 72.8136C66.4285 68.0779 62.5928 64.2422 57.8571 64.2422H20.3571C18.5785 64.2422 17.1428 65.6779 17.1428 67.4565C17.1428 69.235 18.5785 70.6708 20.3571 70.6708H55.7142C56.8928 70.6708 57.8571 71.635 57.8571 72.8136C57.8571 73.9922 56.8928 74.9565 55.7142 74.9565H20.3571C16.2214 74.9565 12.8571 71.5922 12.8571 67.4565C12.8571 66.3636 13.1142 65.335 13.5214 64.3922C9.49281 65.0993 6.42853 68.5922 6.42853 72.8136C6.42853 77.5493 10.2642 81.385 15 81.385Z" fill="#35B5B4"/>
</svg>
