<svg width="94" height="120" viewBox="0 0 94 120" fill="none" xmlns="http://www.w3.org/2000/svg">
<path d="M78.3119 22.2305C78.3119 21.0518 77.8436 19.9213 77.0101 19.0879C76.1766 18.2544 75.0462 17.7861 73.8675 17.7861C72.6888 17.7861 71.5583 18.2544 70.7248 19.0879C69.8913 19.9213 69.4231 21.0518 69.4231 22.2305V33.3415H78.3119V22.2305Z" fill="#35B5B4"/>
<path d="M24.9796 22.2305C24.9796 21.0518 24.5113 19.9213 23.6778 19.0879C22.8444 18.2544 21.7139 17.7861 20.5352 17.7861C19.3565 17.7861 18.226 18.2544 17.3925 19.0879C16.5591 19.9213 16.0908 21.0518 16.0908 22.2305V33.3415H24.9796V22.2305Z" fill="#35B5B4"/>
<path d="M20.5352 46.6562C19.3569 46.6576 18.2272 47.1262 17.394 47.9594C16.5608 48.7926 16.0921 49.9223 16.0908 51.1006V62.2116H24.9796V51.1006C24.9782 49.9223 24.5095 48.7927 23.6763 47.9595C22.8431 47.1263 21.7135 46.6576 20.5352 46.6562Z" fill="#35B5B4"/>
<path d="M51.6466 51.1006C51.6466 49.9219 51.1783 48.7915 50.3448 47.958C49.5114 47.1245 48.3809 46.6562 47.2022 46.6562C46.0235 46.6562 44.893 47.1245 44.0595 47.958C43.2261 48.7915 42.7578 49.9219 42.7578 51.1006V62.2116H51.6466V51.1006Z" fill="#35B5B4"/>
<path d="M78.3119 51.1006C78.3119 49.9219 77.8436 48.7915 77.0101 47.958C76.1766 47.1245 75.0462 46.6562 73.8675 46.6562C72.6888 46.6562 71.5583 47.1245 70.7248 47.958C69.8913 48.7915 69.4231 49.9219 69.4231 51.1006V62.2116H78.3119V51.1006Z" fill="#35B5B4"/>
<path d="M51.6466 22.2305C51.6466 21.0518 51.1783 19.9213 50.3448 19.0879C49.5114 18.2544 48.3809 17.7861 47.2022 17.7861C46.0235 17.7861 44.893 18.2544 44.0595 19.0879C43.2261 19.9213 42.7578 21.0518 42.7578 22.2305V33.3415H51.6466V22.2305Z" fill="#35B5B4"/>
<path d="M78.3119 82.2217C78.3119 81.043 77.8436 79.9126 77.0101 79.0791C76.1766 78.2456 75.0462 77.7773 73.8675 77.7773C72.6888 77.7773 71.5583 78.2456 70.7248 79.0791C69.8913 79.9126 69.4231 81.043 69.4231 82.2217V93.3327H78.3119V82.2217Z" fill="#35B5B4"/>
<path d="M20.5352 77.7773C19.3569 77.7789 18.2274 78.2476 17.3943 79.0808C16.5611 79.9139 16.0924 81.0435 16.0908 82.2217V93.3327H24.9796V82.2217C24.978 81.0435 24.5093 79.9139 23.6761 79.0808C22.843 78.2476 21.7134 77.7789 20.5352 77.7773Z" fill="#35B5B4"/>
<path d="M38.3113 91.1074H44.9778V111.107H38.3113V91.1074Z" fill="#35B5B4"/>
<path d="M13.8737 6.66657C13.8737 7.25593 13.6395 7.82115 13.2228 8.23789C12.8061 8.65463 12.2408 8.88876 11.6515 8.88876H4.98491V119.998H27.2068V113.332C27.2068 112.742 27.4409 112.177 27.8577 111.76C28.2744 111.344 28.8396 111.109 29.429 111.109H33.8734V86.6654C33.8734 83.1292 35.2781 79.7379 37.7785 77.2374C40.279 74.737 43.6703 73.3322 47.2065 73.3322C50.7427 73.3322 54.134 74.737 56.6344 77.2374C59.1349 79.7379 60.5396 83.1292 60.5396 86.6654V111.109H64.984C65.5734 111.109 66.1386 111.344 66.5553 111.76C66.9721 112.177 67.2062 112.742 67.2062 113.332V119.998H89.4281V8.88876H20.5402C19.9509 8.88876 19.3856 8.65463 18.9689 8.23789C18.5522 7.82115 18.318 7.25593 18.318 6.66657C18.318 6.07721 18.5522 5.51198 18.9689 5.09524C19.3856 4.6785 19.9509 4.44438 20.5402 4.44438H93.8725V0H0.540527V4.44438H11.6515C12.2408 4.44438 12.8061 4.6785 13.2228 5.09524C13.6395 5.51198 13.8737 6.07721 13.8737 6.66657ZM64.984 22.2219C64.984 19.8644 65.9205 17.6036 67.5875 15.9366C69.2544 14.2696 71.5153 13.3331 73.8728 13.3331C76.2302 13.3331 78.4911 14.2696 80.1581 15.9366C81.825 17.6036 82.7615 19.8644 82.7615 22.2219V35.555C82.7615 36.1444 82.5274 36.7096 82.1107 37.1264C81.6939 37.5431 81.1287 37.7772 80.5393 37.7772H67.2062C66.6168 37.7772 66.0516 37.5431 65.6349 37.1264C65.2181 36.7096 64.984 36.1444 64.984 35.555V22.2219ZM64.984 51.1103C64.984 48.7529 65.9205 46.492 67.5875 44.825C69.2544 43.1581 71.5153 42.2216 73.8728 42.2216C76.2302 42.2216 78.4911 43.1581 80.1581 44.825C81.825 46.492 82.7615 48.7529 82.7615 51.1103V64.4435C82.7615 65.0328 82.5274 65.5981 82.1107 66.0148C81.6939 66.4315 81.1287 66.6657 80.5393 66.6657H67.2062C66.6168 66.6657 66.0516 66.4315 65.6349 66.0148C65.2181 65.5981 64.984 65.0328 64.984 64.4435V51.1103ZM64.984 82.221C64.984 79.8635 65.9205 77.6027 67.5875 75.9357C69.2544 74.2687 71.5153 73.3322 73.8728 73.3322C76.2302 73.3322 78.4911 74.2687 80.1581 75.9357C81.825 77.6027 82.7615 79.8635 82.7615 82.221V95.5541C82.7615 96.1435 82.5274 96.7087 82.1107 97.1255C81.6939 97.5422 81.1287 97.7763 80.5393 97.7763H67.2062C66.6168 97.7763 66.0516 97.5422 65.6349 97.1255C65.2181 96.7087 64.984 96.1435 64.984 95.5541V82.221ZM38.3177 22.2219C38.3177 19.8644 39.2542 17.6036 40.9212 15.9366C42.5882 14.2696 44.8491 13.3331 47.2065 13.3331C49.5639 13.3331 51.8248 14.2696 53.4918 15.9366C55.1588 17.6036 56.0953 19.8644 56.0953 22.2219V35.555C56.0953 36.1444 55.8611 36.7096 55.4444 37.1264C55.0276 37.5431 54.4624 37.7772 53.8731 37.7772H40.5399C39.9506 37.7772 39.3853 37.5431 38.9686 37.1264C38.5519 36.7096 38.3177 36.1444 38.3177 35.555V22.2219ZM38.3177 51.1103C38.3177 48.7529 39.2542 46.492 40.9212 44.825C42.5882 43.1581 44.8491 42.2216 47.2065 42.2216C49.5639 42.2216 51.8248 43.1581 53.4918 44.825C55.1588 46.492 56.0953 48.7529 56.0953 51.1103V64.4435C56.0953 65.0328 55.8611 65.5981 55.4444 66.0148C55.0276 66.4315 54.4624 66.6657 53.8731 66.6657H40.5399C39.9506 66.6657 39.3853 66.4315 38.9686 66.0148C38.5519 65.5981 38.3177 65.0328 38.3177 64.4435V51.1103ZM29.429 95.5541C29.429 96.1435 29.1949 96.7087 28.7781 97.1255C28.3614 97.5422 27.7962 97.7763 27.2068 97.7763H13.8737C13.2843 97.7763 12.7191 97.5422 12.3023 97.1255C11.8856 96.7087 11.6515 96.1435 11.6515 95.5541V82.221C11.6515 79.8635 12.588 77.6027 14.2549 75.9357C15.9219 74.2687 18.1828 73.3322 20.5402 73.3322C22.8977 73.3322 25.1586 74.2687 26.8255 75.9357C28.4925 77.6027 29.429 79.8635 29.429 82.221V95.5541ZM29.429 64.4435C29.429 65.0328 29.1949 65.5981 28.7781 66.0148C28.3614 66.4315 27.7962 66.6657 27.2068 66.6657H13.8737C13.2843 66.6657 12.7191 66.4315 12.3023 66.0148C11.8856 65.5981 11.6515 65.0328 11.6515 64.4435V51.1103C11.6515 48.7529 12.588 46.492 14.2549 44.825C15.9219 43.1581 18.1828 42.2216 20.5402 42.2216C22.8977 42.2216 25.1586 43.1581 26.8255 44.825C28.4925 46.492 29.429 48.7529 29.429 51.1103V64.4435ZM20.5402 13.3331C22.8969 13.3356 25.1563 14.2729 26.8228 15.9394C28.4892 17.6058 29.4265 19.8652 29.429 22.2219V35.555C29.429 36.1444 29.1949 36.7096 28.7781 37.1264C28.3614 37.5431 27.7962 37.7772 27.2068 37.7772H13.8737C13.2843 37.7772 12.7191 37.5431 12.3023 37.1264C11.8856 36.7096 11.6515 36.1444 11.6515 35.555V22.2219C11.6539 19.8652 12.5912 17.6057 14.2576 15.9393C15.924 14.2728 18.1835 13.3356 20.5402 13.3331Z" fill="#35B5B4"/>
<path d="M47.2 77.7773C44.8433 77.7797 42.5838 78.7169 40.9173 80.3834C39.2509 82.0499 38.3136 84.3094 38.3113 86.6661H56.0888C56.0864 84.3094 55.1492 82.0499 53.4827 80.3834C51.8163 78.7169 49.5568 77.7797 47.2 77.7773Z" fill="#35B5B4"/>
<path d="M49.4287 91.1074H56.0953V111.107H49.4287V91.1074Z" fill="#35B5B4"/>
<path d="M31.6465 115.556H62.7571V120H31.6465V115.556Z" fill="#35B5B4"/>
</svg>
