<svg width="20" height="12" viewBox="0 0 20 12" fill="none" xmlns="http://www.w3.org/2000/svg">
<circle cx="15.5996" cy="3.60059" r="2" fill="white"/>
<path d="M3.1924 5.60279C5.62768 5.61327 12.8419 5.64079 12.8004 5.59927V2.42599C12.7995 2.20324 12.7064 1.99082 12.5432 1.83924C12.38 1.68765 12.1612 1.61045 11.939 1.62599C8.8482 1.94594 5.81386 2.67681 2.91632 3.79927C2.60523 3.9168 2.39965 4.21495 2.4004 4.54751V4.80279C2.39934 5.0139 2.48218 5.21679 2.63071 5.36682C2.77924 5.51685 2.98129 5.60173 3.1924 5.60279Z" fill="white"/>
<path d="M19.6 0.799805C19.3791 0.799805 19.2 0.978891 19.2 1.1998V6.3998H0.8V5.1998C0.8 4.97889 0.620914 4.7998 0.4 4.7998C0.179086 4.7998 0 4.97889 0 5.1998V8.7998H20V1.1998C20 0.978891 19.8209 0.799805 19.6 0.799805Z" fill="white"/>
<path d="M0 10.3996V10.7996C0 11.0205 0.179086 11.1996 0.4 11.1996C0.620914 11.1996 0.8 11.0205 0.8 10.7996V10.3996H19.2V10.7996C19.2 11.0205 19.3791 11.1996 19.6 11.1996C19.8209 11.1996 20 11.0205 20 10.7996V9.59961H0V10.3996Z" fill="white"/>
</svg>
