<svg width="120" height="121" viewBox="0 0 120 121" fill="none" xmlns="http://www.w3.org/2000/svg">
<path d="M77.8143 50.2396H98.908V29.9004L77.8143 35.1738V50.2396Z" fill="#35B5B4"/>
<path d="M115.499 0.924814L44.7186 22.0184C42.8204 22.5812 41.7657 24.5499 42.3282 26.3783C42.8905 28.2764 44.8595 29.3311 46.6876 28.7686L56.25 25.898V43.2063H3.51573C1.57253 43.2063 0.00012207 44.7787 0.00012207 46.7219L0.00012207 67.8155C0.00012207 69.7587 1.57253 71.3311 3.51573 71.3311H119.999V4.30026C119.999 3.17503 119.507 2.12059 118.593 1.48755C117.679 0.784424 116.554 0.643566 115.499 0.924814ZM14.0625 64.2997H7.03133V50.2373H14.0625V64.2997ZM28.125 64.2997H21.0937V50.2373H28.125V64.2997ZM42.1874 64.2997H35.1562V50.2373H42.1874V64.2997ZM56.2498 64.2997H49.2186V50.2373H56.2498V64.2997ZM105.937 53.7529C105.937 55.696 104.365 57.2685 102.421 57.2685H74.2966C72.3534 57.2685 70.781 55.696 70.781 53.7529V32.4249C70.781 30.8112 71.8797 29.4071 73.4451 29.0157L101.57 21.9845C102.61 21.7133 103.726 21.9535 104.584 22.6231C105.439 23.2892 105.937 24.3123 105.937 25.3937V53.7529H105.937Z" fill="#35B5B4"/>
<path d="M84.8435 78.3604H91.8747V120.782H84.8435V78.3604Z" fill="#35B5B4"/>
<path d="M98.9059 78.3633H105.937V120.785H98.9059V78.3633Z" fill="#35B5B4"/>
<path d="M14.0624 113.751H3.5156C1.54663 113.751 0 115.297 0 117.266C0 119.235 1.54663 120.782 3.5156 120.782H28.1248V88.9072C28.1248 86.964 29.6972 85.3916 31.6404 85.3916H59.7653C61.7085 85.3916 63.2809 86.964 63.2809 88.9072V120.782H77.812V78.3604H14.0624V113.751Z" fill="#35B5B4"/>
<path d="M112.969 120.779H116.484C118.453 120.779 120 119.232 120 117.263C120 116.162 120 76.8375 120 78.3574H112.969V120.779Z" fill="#35B5B4"/>
<path d="M52.7339 99.456H56.2495V92.4248H35.1559V120.784H56.2495V106.487H52.7339C50.7907 106.487 49.2183 104.915 49.2183 102.972C49.2183 101.028 50.7907 99.456 52.7339 99.456Z" fill="#35B5B4"/>
</svg>
