<svg width="120" height="63" viewBox="0 0 120 63" fill="none" xmlns="http://www.w3.org/2000/svg">
<circle cx="93.6003" cy="16.8037" r="12" fill="#35B5B4"/>
<path d="M19.1522 28.8169C33.7639 28.8798 77.0493 29.0449 76.8002 28.7958V9.75611C76.7948 8.41965 76.2361 7.14512 75.2568 6.23562C74.2775 5.32611 72.9653 4.86289 71.632 4.95612C53.087 6.87583 34.881 11.2611 17.4957 17.9958C15.6292 18.701 14.3957 20.4899 14.4002 22.4852V24.0169C14.3938 25.2836 14.8909 26.5009 15.7821 27.4011C16.6733 28.3013 17.8855 28.8106 19.1522 28.8169Z" fill="#35B5B4"/>
<path d="M117.6 0C116.275 0 115.2 1.07452 115.2 2.4V33.6H4.8V26.4C4.8 25.0745 3.72548 24 2.4 24C1.07452 24 0 25.0745 0 26.4V48H120V2.4C120 1.07452 118.925 0 117.6 0Z" fill="#35B5B4"/>
<path d="M0 57.5959V59.9959C0 61.3214 1.07452 62.3959 2.4 62.3959C3.72548 62.3959 4.8 61.3214 4.8 59.9959V57.5959H115.2V59.9959C115.2 61.3214 116.275 62.3959 117.6 62.3959C118.925 62.3959 120 61.3214 120 59.9959V52.7959H0V57.5959Z" fill="#35B5B4"/>
</svg>
