<svg width="120" height="120" viewBox="0 0 120 120" fill="none" xmlns="http://www.w3.org/2000/svg">
<path d="M91.64 57.4209C91.64 53.5439 88.4858 50.3896 84.6087 50.3896H77.5775C73.7005 50.3896 70.5463 53.5439 70.5463 57.4209V82.0302H91.64V57.4209Z" fill="#35B5B4"/>
<path d="M14.297 17.5781C14.297 11.7633 19.029 7.03123 24.8438 7.03123H31.8751C36.6268 7.03123 40.6538 10.1915 41.9682 14.52C34.1818 16.3251 28.3594 23.3132 28.3594 31.6405V35.1562H63.5156V31.6405C63.5156 23.0465 57.3148 15.8782 49.1531 14.3625C47.6374 6.20014 40.4682 0 31.8751 0H24.8438C15.1524 0 7.26575 7.88436 7.26575 17.5781V50.3905H14.297V17.5781Z" fill="#35B5B4"/>
<path d="M98.671 89.0625H63.5149V78.5156H7.26501V89.0625C7.26501 98.2619 12.3392 106.297 19.835 110.519L15.3261 115.028L20.2976 120L27.0933 113.204C28.6404 113.51 30.2389 113.672 31.8743 113.672H88.1242C89.7597 113.672 91.3581 113.51 92.9052 113.204L99.7009 120L104.673 115.028L100.164 110.519C107.659 106.297 112.733 98.2619 112.733 89.0625V78.5156H98.671V89.0625Z" fill="#35B5B4"/>
<path d="M112.968 57.4219H98.6715V71.4843H112.968C116.845 71.4843 120 68.3297 120 64.4531C120 60.5766 116.845 57.4219 112.968 57.4219Z" fill="#35B5B4"/>
<path d="M63.5155 57.4219H7.03123C3.15468 57.4219 0 60.5766 0 64.4531C0 68.3297 3.15468 71.4843 7.03123 71.4843H63.5155V57.4219Z" fill="#35B5B4"/>
</svg>
