<svg width="120" height="121" viewBox="0 0 120 121" fill="none" xmlns="http://www.w3.org/2000/svg">
<path d="M89.8653 80.1386C88.7529 79.0223 87.4311 78.1366 85.9756 77.5323C84.5202 76.9279 82.9598 76.6169 81.3839 76.6169C79.808 76.6169 78.2475 76.9279 76.7921 77.5323C75.3367 78.1366 74.0149 79.0223 72.9025 80.1386L67.1151 85.9259C60.599 81.7904 54.5619 76.9446 49.1146 71.4776C43.6475 66.0302 38.8017 59.9931 34.6662 53.477L40.4535 47.6897C41.5698 46.5773 42.4555 45.2555 43.0598 43.8C43.6642 42.3446 43.9753 40.7842 43.9753 39.2083C43.9753 37.6323 43.6642 36.0719 43.0598 34.6165C42.4555 33.1611 41.5698 31.8392 40.4535 30.7268L29.1583 19.4715C28.0616 18.3515 26.7509 17.4634 25.3042 16.8601C23.8575 16.2567 22.3042 15.9503 20.7367 15.9592C19.1581 15.9553 17.5943 16.2636 16.1353 16.8664C14.6763 17.4692 13.3509 18.3545 12.2353 19.4715L6.80722 24.8597C4.21996 27.6415 2.289 30.9677 1.15625 34.5938C0.0235067 38.22 -0.282218 42.0539 0.261551 45.8138C1.53875 60.781 11.3573 78.7816 26.4841 93.9484C41.611 109.115 59.8111 118.894 74.7783 120.331C75.8951 120.39 77.0142 120.39 78.131 120.331C81.3529 120.466 84.5693 119.957 87.5917 118.833C90.6142 117.709 93.3819 115.992 95.7325 113.785L101.121 108.357C102.238 107.241 103.123 105.916 103.726 104.457C104.328 102.998 104.637 101.434 104.633 99.8554C104.642 98.2879 104.335 96.7347 103.732 95.288C103.129 93.8412 102.241 92.5306 101.121 91.4339L89.8653 80.1386Z" fill="#35B5B4"/>
<path d="M102.436 18.1116C96.8888 12.5437 90.2946 8.12881 83.0334 5.12157C75.7722 2.11433 67.9875 0.574191 60.1282 0.589964C59.0697 0.589964 58.0545 1.01047 57.306 1.75898C56.5575 2.50748 56.137 3.52267 56.137 4.58122C56.137 5.63977 56.5575 6.65496 57.306 7.40347C58.0545 8.15197 59.0697 8.57248 60.1282 8.57248C66.9791 8.57224 73.7623 9.92873 80.0862 12.5637C86.4101 15.1986 92.1496 19.0598 96.9735 23.9245C101.797 28.7892 105.61 34.5611 108.192 40.907C110.773 47.2529 112.073 54.0472 112.015 60.8979C112.015 61.9564 112.435 62.9716 113.184 63.7201C113.932 64.4686 114.947 64.8891 116.006 64.8891C117.064 64.8891 118.08 64.4686 118.828 63.7201C119.577 62.9716 119.997 61.9564 119.997 60.8979C120.074 52.955 118.559 45.0772 115.543 37.7289C112.527 30.3805 108.07 23.7104 102.436 18.1116Z" fill="#35B5B4"/>
<path d="M79.7246 40.9443C81.9897 43.1957 83.7816 45.8774 84.9949 48.8317C86.2081 51.7859 86.8182 54.953 86.7891 58.1466C86.7891 59.2051 87.2097 60.2203 87.9582 60.9688C88.7067 61.7173 89.7219 62.1378 90.7804 62.1378C91.839 62.1378 92.8541 61.7173 93.6026 60.9688C94.3512 60.2203 94.7717 59.2051 94.7717 58.1466C94.8245 53.92 94.0376 49.725 92.4567 45.8049C90.8757 41.8847 88.5321 38.3175 85.5619 35.3102C82.5916 32.3028 79.0538 29.9151 75.1536 28.2855C71.2534 26.656 67.0685 25.8171 62.8416 25.8174C61.7831 25.8174 60.7679 26.2379 60.0194 26.9864C59.2708 27.7349 58.8503 28.7501 58.8503 29.8086C58.8503 30.8672 59.2708 31.8824 60.0194 32.6309C60.7679 33.3794 61.7831 33.7999 62.8416 33.7999C65.987 33.8236 69.097 34.4667 71.9938 35.6926C74.8906 36.9184 77.5176 38.703 79.7246 40.9443Z" fill="#35B5B4"/>
</svg>
