<svg width="121" height="108" viewBox="0 0 121 108" fill="none" xmlns="http://www.w3.org/2000/svg">
<path d="M25.306 63.0361C24.1716 64.649 24.5708 66.8691 26.1828 67.9895L28.6191 69.6814C24.6427 73.5182 19.3099 75.6891 13.7401 75.6891H7.08985V68.0084C7.08985 66.0507 5.50267 64.4635 3.54492 64.4635C1.58718 64.4635 0 66.0507 0 68.0084V104.167C0 106.124 1.58718 107.712 3.54492 107.712C5.50267 107.712 7.08985 106.124 7.08985 104.167V96.9586H11.8949C24.6169 96.9586 37.0582 91.6091 45.8959 81.6798L49.4422 84.1425C51.0523 85.267 53.2861 84.8544 54.3933 83.2256L56.8228 79.6594L28.064 59.1201L25.306 63.0361Z" fill="#35B5B4"/>
<path d="M119.455 63.3523L118.148 62.459L90.9583 84.1846L98.7382 89.7856C100.258 90.8791 102.382 90.6028 103.566 89.1333L120.213 68.5066C121.518 66.889 121.155 64.512 119.455 63.3523Z" fill="#35B5B4"/>
<path d="M113.95 50.9866L45.7861 1.76081C42.7245 -0.45075 38.4734 0.124 36.1083 3.06818L13.7065 30.9514C11.1589 34.1231 11.8019 38.7965 15.1133 41.1614L75.4174 84.2264C76.7061 85.1466 78.4512 85.1012 79.6903 84.111L114.087 56.6301C115.915 55.17 115.852 52.3599 113.95 50.9866ZM88.8596 57.2554C86.9018 57.2554 85.3146 55.6682 85.3146 53.7105C85.3146 51.7527 86.9018 50.1656 88.8596 50.1656C90.8173 50.1656 92.4045 51.7527 92.4045 53.7105C92.4045 55.6682 90.8173 57.2554 88.8596 57.2554Z" fill="#35B5B4"/>
</svg>
