<svg width="120" height="113" viewBox="0 0 120 113" fill="none" xmlns="http://www.w3.org/2000/svg">
<path d="M64.8428 44.001L64.8232 44.0537H35.1743C30.8704 44.0537 26.8643 45.3493 23.5226 47.5693H14.0625C10.1855 47.5693 7.03125 44.4151 7.03125 40.5381C7.03125 36.661 10.1855 33.5068 14.0625 33.5068H24.6094C26.5509 33.5068 28.125 31.9328 28.125 29.9912C28.125 28.0496 26.5509 26.4756 24.6094 26.4756H14.0625C6.30843 26.4756 0 32.784 0 40.5381C0 48.2921 6.30843 54.6006 14.0625 54.6006H16.9019C15.0973 57.7098 14.0625 61.3189 14.0625 65.1655V109.21C14.0625 111.151 15.6366 112.726 17.5781 112.726H31.6406C33.5822 112.726 35.1562 111.151 35.1562 109.21V79.5399L67.2656 82.4239V109.444C67.2656 111.386 68.8396 112.96 70.7812 112.96H84.8437C86.7853 112.96 88.3593 111.386 88.3593 109.444V76.0426L92.6913 54.3824L64.8428 44.001Z" fill="#35B5B4"/>
<path d="M116.484 22.961H105.876C105.305 17.5945 100.763 13.3516 95.1679 13.3516H89.2689L87.1164 2.80477C86.4121 -0.644989 81.6067 -1.02046 80.377 2.28118L67.2963 37.4126L94.0879 47.4L94.757 44.0547H102.422C112.114 44.0547 120 36.1692 120 26.4766C120 24.5351 118.426 22.961 116.484 22.961Z" fill="#35B5B4"/>
</svg>
