<svg width="120" height="120" viewBox="0 0 120 120" fill="none" xmlns="http://www.w3.org/2000/svg">
<path d="M62.5291 120.009H100.196C101.219 120.009 102.083 119.25 102.214 118.235L108.289 71.1914H54.4355L60.5113 118.235C60.6422 119.25 61.5062 120.009 62.5291 120.009Z" fill="#35B5B4"/>
<path d="M53.974 32.2544C57.7421 34.6174 62.1271 35.8082 66.5729 35.6756C70.0296 35.6481 73.4666 35.152 76.79 34.2009C78.0219 37.3652 78.8422 40.6746 79.2309 44.0478L79.3 48.8197H50.8517C50.2664 48.8195 49.7093 49.0715 49.323 49.5112C48.9366 49.9509 48.7584 50.5357 48.8339 51.1162L50.6869 65.3546C50.8187 66.3675 51.6812 67.1256 52.7027 67.1263H110.022C111.044 67.1256 111.906 66.3675 112.038 65.3546L113.891 51.1162C113.967 50.5357 113.789 49.9509 113.402 49.5112C113.016 49.0715 112.459 48.8195 111.873 48.8197H83.3966L83.4943 44.056C83.8647 40.6774 84.6856 37.3637 85.9351 34.203C89.2582 35.1522 92.6943 35.6475 96.1502 35.6756C100.596 35.8082 104.981 34.6174 108.749 32.2544C118.513 25.7189 119.936 10.6689 120 10.0302C120.002 9.90687 119.993 9.78353 119.971 9.66207C119.969 9.58112 119.963 9.50032 119.953 9.42001C119.901 9.17683 119.805 8.94519 119.67 8.73657V8.7203C119.65 8.68978 119.617 8.67555 119.597 8.64707C119.473 8.48136 119.326 8.3347 119.159 8.21178C119.083 8.163 119.003 8.11885 118.921 8.07957C118.84 8.02503 118.754 7.9774 118.665 7.93718C118.079 7.73378 104.183 2.86221 94.3785 9.42611C85.5629 15.3249 83.5471 28.1395 83.1912 31.0482C82.3553 32.1938 81.735 33.482 81.3605 34.8498C80.9836 33.4773 80.3636 32.1835 79.5299 31.0299C79.1739 28.0967 77.148 15.3188 68.3426 9.42611C58.5486 2.86424 44.6519 7.73174 44.064 7.93515C43.9749 7.97568 43.8892 8.0233 43.8077 8.07753C43.7263 8.11638 43.6475 8.16055 43.5718 8.20975C43.404 8.3316 43.2558 8.47839 43.1324 8.64504C43.1121 8.67351 43.0796 8.68775 43.0592 8.71826V8.73453C42.924 8.94316 42.8282 9.1748 42.7765 9.41798C42.7662 9.49829 42.7601 9.57908 42.7582 9.66003C42.7315 9.78168 42.7172 9.90571 42.7155 10.0302C42.7805 10.6689 44.2125 25.7189 53.974 32.2544ZM61.022 58.99H56.9539C55.8305 58.99 54.9198 58.0793 54.9198 56.956C54.9198 55.8326 55.8305 54.9219 56.9539 54.9219H61.022C62.1454 54.9219 63.056 55.8326 63.056 56.956C63.056 58.0793 62.1454 58.99 61.022 58.99ZM83.3966 54.9219C84.52 54.9219 85.4307 55.8326 85.4307 56.956C85.4307 58.0793 84.52 58.99 83.3966 58.99H69.1582C68.0348 58.99 67.1242 58.0793 67.1242 56.956C67.1242 55.8326 68.0348 54.9219 69.1582 54.9219H83.3966Z" fill="#35B5B4"/>
<path d="M16.2724 43.6509C18.7884 45.1035 21.8882 45.1044 24.405 43.653C26.9218 42.2016 28.4737 39.5184 28.4767 36.6131V8.13623C28.4767 3.64272 24.834 0 20.3405 0C15.847 0 12.2042 3.64272 12.2042 8.13623V36.6131C12.1988 39.5191 13.7514 42.2052 16.2724 43.6509ZM20.3405 6.10218C21.4639 6.10218 22.3745 7.01285 22.3745 8.13623C22.3745 9.25961 21.4639 10.1703 20.3405 10.1703C19.2171 10.1703 18.3064 9.25961 18.3064 8.13623C18.3064 7.01285 19.2171 6.10218 20.3405 6.10218Z" fill="#35B5B4"/>
<path d="M16.2727 48.1084V55.1056C16.2883 55.1218 16.2957 55.1442 16.293 55.1666C17.4118 66.3539 19.2221 71.7848 20.3408 73.046C21.4596 71.7848 23.2699 66.3539 24.3886 55.1666C24.3859 55.1442 24.3934 55.1218 24.4089 55.1056V48.1084C21.7799 49.0577 18.9017 49.0577 16.2727 48.1084Z" fill="#35B5B4"/>
<path d="M20.3406 117.977C30.5109 117.977 40.6812 87.8725 40.6812 72.9364C40.6812 61.7491 35.5574 57.205 28.2551 55.6469C26.1966 77.2954 22.0939 77.2954 20.3406 77.2954C18.5872 77.2954 14.4845 77.2954 12.4261 55.6367C5.12379 57.205 0 61.7389 0 72.9262C0 87.8725 10.1703 117.977 20.3406 117.977Z" fill="#35B5B4"/>
</svg>
