<svg width="120" height="109" viewBox="0 0 120 109" fill="none" xmlns="http://www.w3.org/2000/svg">
<path d="M116.583 46.0117L66.5439 2.44427C64.7292 0.868913 62.4071 0.0010432 60.004 9.39861e-07C57.6009 -0.00104132 55.278 0.864815 53.462 2.43859L3.43923 45.9898C1.90809 47.3097 0.817264 49.0663 0.313111 51.024C-0.191042 52.9816 -0.0844008 55.0466 0.618725 56.9419C1.32185 58.8372 2.58783 60.4722 4.24678 61.6273C5.90574 62.7825 7.87832 63.4027 9.89984 63.4046H16.028V98.866C16.0312 101.498 17.0783 104.022 18.9397 105.883C20.8011 107.745 23.3248 108.792 25.9572 108.795H40.1418C42.7742 108.792 45.2979 107.745 47.1592 105.883C49.0206 104.022 50.0678 101.498 50.071 98.866V84.6814C50.0725 83.2926 50.3647 81.9195 50.9286 80.6504C51.4926 79.3812 52.3159 78.2441 53.3456 77.3122C54.3775 76.3725 55.5972 75.6628 56.924 75.2301C58.2508 74.7974 59.6544 74.6515 61.0418 74.8021C63.5742 75.1927 65.8761 76.4965 67.5133 78.4675C69.1505 80.4385 70.0099 82.9405 69.9293 85.5015V98.866C69.9325 101.498 70.9796 104.022 72.841 105.884C74.7024 107.745 77.2261 108.792 79.8585 108.795H94.0431C96.6755 108.792 99.1992 107.745 101.061 105.884C102.922 104.022 103.969 101.498 103.972 98.866V63.4047H110.1C112.119 63.403 114.089 62.7847 115.747 61.6324C117.405 60.4802 118.671 58.849 119.376 56.9573C120.081 55.0656 120.192 53.0037 119.692 51.0475C119.193 49.0913 118.108 47.3344 116.583 46.0117Z" fill="#35B5B4"/>
</svg>
