<svg width="19" height="20" viewBox="0 0 19 20" fill="none" xmlns="http://www.w3.org/2000/svg">
<path d="M9.49762 6.78218C7.7532 6.78218 6.32961 8.20577 6.32961 9.9502C6.32961 11.6946 7.7532 13.1182 9.49762 13.1182C11.2421 13.1182 12.6656 11.6946 12.6656 9.9502C12.6656 8.20577 11.2421 6.78218 9.49762 6.78218ZM18.9993 9.9502C18.9993 8.63831 19.0112 7.33831 18.9375 6.0288C18.8638 4.50777 18.5168 3.15786 17.4046 2.0456C16.29 0.930976 14.9424 0.586369 13.4214 0.512694C12.1095 0.439019 10.8095 0.450902 9.5 0.450902C8.18811 0.450902 6.88811 0.439019 5.5786 0.512694C4.05757 0.586369 2.70766 0.933353 1.59541 2.0456C0.480781 3.16023 0.136173 4.50777 0.0624986 6.0288C-0.0111762 7.34068 0.000706908 8.64069 0.000706908 9.9502C0.000706908 11.2597 -0.0111762 12.5621 0.0624986 13.8716C0.136173 15.3926 0.483158 16.7425 1.59541 17.8548C2.71004 18.9694 4.05757 19.314 5.5786 19.3877C6.89049 19.4614 8.19049 19.4495 9.5 19.4495C10.8119 19.4495 12.1119 19.4614 13.4214 19.3877C14.9424 19.314 16.2923 18.967 17.4046 17.8548C18.5192 16.7402 18.8638 15.3926 18.9375 13.8716C19.0136 12.5621 18.9993 11.2621 18.9993 9.9502ZM9.49762 14.8246C6.80018 14.8246 4.62321 12.6476 4.62321 9.9502C4.62321 7.25275 6.80018 5.07578 9.49762 5.07578C12.1951 5.07578 14.372 7.25275 14.372 9.9502C14.372 12.6476 12.1951 14.8246 9.49762 14.8246ZM14.5717 6.01454C13.9419 6.01454 13.4333 5.50594 13.4333 4.87614C13.4333 4.24634 13.9419 3.73775 14.5717 3.73775C15.2015 3.73775 15.7101 4.24634 15.7101 4.87614C15.7103 5.02569 15.6809 5.17381 15.6238 5.31201C15.5667 5.45021 15.4828 5.57578 15.3771 5.68153C15.2713 5.78727 15.1457 5.87112 15.0075 5.92826C14.8693 5.98541 14.7212 6.01472 14.5717 6.01454Z" fill="#35B5B4"/>
</svg>
