<svg width="120" height="118" viewBox="0 0 120 118" fill="none" xmlns="http://www.w3.org/2000/svg">
<path d="M82.9714 17.798C81.4905 10.3387 75.7458 4.03991 68.4991 1.41432C62.6808 -0.707162 56.4004 -0.4341 50.7921 2.19149C50.4771 2.33852 50.204 2.50656 49.8889 2.65359C49.8469 2.65359 49.8049 2.65359 49.7629 2.6956C49.5949 2.77962 49.4268 2.90565 49.2588 2.98967C48.9437 3.15771 48.6287 3.34675 48.3346 3.53579C48.0195 3.72484 47.7254 3.93488 47.4314 4.12393C47.1163 4.35498 46.7802 4.56502 46.4652 4.81708C46.2131 5.00612 45.9821 5.19517 45.751 5.40521C45.4149 5.67828 45.0999 5.95134 44.7848 6.2454C44.5957 6.43445 44.4067 6.62349 44.1967 6.81253C43.8816 7.1276 43.5455 7.46368 43.2514 7.79975C43.1254 7.92578 43.0204 8.07281 42.9154 8.19884C27.2878 3.97689 10.7571 12.3368 5.10686 27.8173C0.630229 40.1182 4.32444 53.3984 13.3827 61.7583C14.1599 62.4751 14.433 63.5883 14.0706 64.5834L11.0906 72.7805C10.9724 73.1087 10.9882 73.471 11.1352 73.7861L12.8681 77.4803C13.1753 78.1367 12.8944 78.9191 12.2353 79.2263L9.23429 80.6336C8.57789 80.9408 8.29433 81.7233 8.60152 82.3797L10.0088 85.3807C10.316 86.0371 10.0351 86.8195 9.37607 87.1267L6.37502 88.534C5.71862 88.8412 5.43506 89.6237 5.74225 90.2801L7.14957 93.2811C7.45676 93.9375 7.17583 94.7199 6.5168 95.0271L2.81997 96.76C2.5049 96.9071 2.26072 97.1749 2.14257 97.5004L0.231139 102.773C-0.0839317 103.639 -0.0839317 104.587 0.228514 105.451L3.71005 115.105C4.54498 117.418 7.27035 118.411 9.39708 117.174L18.2611 112.015C19.0566 111.553 19.6658 110.823 19.9808 109.959L33.8755 71.7959C34.2378 70.8008 35.162 70.1234 36.2201 70.0735C48.5446 69.4959 59.9056 61.7189 64.3796 49.397C70.1139 33.6434 62.4681 16.3145 47.2817 9.74006L47.2397 9.76107C47.3867 9.61404 47.5128 9.48801 47.6598 9.34097C47.9119 9.08892 48.1849 8.87887 48.458 8.64782C48.647 8.47978 48.8361 8.33275 49.0461 8.16471C49.2982 7.97567 49.5712 7.78662 49.8233 7.59758C50.0753 7.42954 50.3064 7.26151 50.5585 7.11447C50.8105 6.96744 51.0626 6.82041 51.3146 6.67337C51.7347 6.44232 52.1338 6.21127 52.5749 6.00122C57.1539 3.85874 62.3001 3.64869 67.0682 5.37108C71.9413 7.13548 75.7011 10.7903 77.7806 15.3063L82.9687 17.8059L82.9714 17.798ZM46.4021 25.0026C45.2049 28.2794 41.5921 29.9597 38.3153 28.7625C35.0386 27.5652 33.3582 23.9524 34.5555 20.6756C35.2276 18.8482 36.656 17.5459 38.3363 16.9368C37.9582 18.3021 37.6432 19.6884 37.5172 21.0957C37.4121 22.251 38.2733 23.2802 39.4286 23.3853C40.5838 23.4903 41.6131 22.6291 41.7181 21.4738C41.8651 19.9405 42.2012 18.4281 42.7053 16.9578C45.919 18.1761 47.5784 21.7469 46.4021 25.0026Z" fill="#35B5B4"/>
<path d="M119.979 39.4226C119.871 40.7038 119.378 41.9221 118.559 42.9146C117.74 43.9071 116.639 44.6265 115.4 44.9757L111.643 46.0312L117.755 67.7816C118.207 69.3963 117.999 71.1239 117.178 72.589C116.358 74.0515 114.991 75.128 113.376 75.5822L104.677 78.0292C103.06 78.4808 101.332 78.2734 99.8698 77.4516C98.4073 76.6324 97.3308 75.2645 96.874 73.6498L94.5713 65.4527C94.1775 63.8694 93.2191 62.4805 91.8775 61.5563C90.5332 60.6295 88.8948 60.2251 87.2748 60.422C86.3978 60.5691 85.5629 60.8999 84.8225 61.3935C84.0847 61.8897 83.4572 62.5356 82.9872 63.2892C82.5172 64.0375 82.2074 64.8777 82.0814 65.752C81.9527 66.6289 82.0105 67.5216 82.2494 68.3723L84.6938 77.0735C85.1454 78.6883 84.938 80.4159 84.1188 81.8784C83.297 83.3408 81.9291 84.4199 80.317 84.8742L71.6158 87.3186C70.001 87.7728 68.2734 87.5654 66.8109 86.7436C65.3485 85.9218 64.2694 84.5565 63.8151 82.9417L59.2414 66.6736C58.9683 65.7021 59.2519 64.665 59.9634 63.9508C59.966 63.9482 59.9713 63.943 59.9739 63.9403C66.7295 57.1847 70.45 48.2025 70.45 38.6506C70.45 33.7119 69.4575 28.9281 67.5619 24.5223C67.0394 23.3067 67.1575 21.9099 67.8822 20.8045L70.1533 17.344C70.9935 16.0679 72.2695 15.1358 73.7451 14.721C75.2181 14.3088 76.7934 14.4401 78.1771 15.0938L116.379 33.1894C117.543 33.7382 118.511 34.6282 119.155 35.7415C119.798 36.8574 120.084 38.1386 119.979 39.4226Z" fill="#35B5B4"/>
</svg>
