<svg width="17" height="23" viewBox="0 0 17 23" fill="none" xmlns="http://www.w3.org/2000/svg">
<path d="M8.06779 0.5C3.61912 0.5 0 4.11912 0 8.56779C0 10.0323 0.656813 11.6075 0.684339 11.6739C0.896474 12.1774 1.31505 12.9595 1.61688 13.418L7.14854 21.7995C7.37491 22.143 7.70996 22.34 8.06779 22.34C8.42563 22.34 8.76068 22.143 8.98705 21.7999L14.5192 13.418C14.8215 12.9595 15.2396 12.1774 15.4517 11.6739C15.4792 11.6079 16.1356 10.0328 16.1356 8.56779C16.1356 4.11912 12.5165 0.5 8.06779 0.5ZM14.5766 11.3056C14.3873 11.7569 13.9976 12.4845 13.7266 12.8955L8.19451 21.2774C8.08535 21.443 8.05071 21.443 7.94156 21.2774L2.40942 12.8955C2.13844 12.4845 1.74881 11.7565 1.55946 11.3052C1.55139 11.2857 0.949152 9.83586 0.949152 8.56779C0.949152 4.64258 4.14258 1.44915 8.06779 1.44915C11.993 1.44915 15.1864 4.64258 15.1864 8.56779C15.1864 9.83776 14.5828 11.2914 14.5766 11.3056Z" fill="#002E50"/>
<path d="M8.06757 4.29688C5.71225 4.29688 3.79639 6.21321 3.79639 8.56806C3.79639 10.9229 5.71225 12.8392 8.06757 12.8392C10.4229 12.8392 12.3388 10.9229 12.3388 8.56806C12.3388 6.21321 10.4229 4.29688 8.06757 4.29688ZM8.06757 11.8901C6.23618 11.8901 4.74554 10.3999 4.74554 8.56806C4.74554 6.7362 6.23618 5.24603 8.06757 5.24603C9.89896 5.24603 11.3896 6.7362 11.3896 8.56806C11.3896 10.3999 9.89896 11.8901 8.06757 11.8901Z" fill="#002E50"/>
</svg>
