<svg width="121" height="120" viewBox="0 0 121 120" fill="none" xmlns="http://www.w3.org/2000/svg">
<path d="M104.929 7.03133H113.132V15.2345C113.132 17.1775 114.705 18.7502 116.648 18.7502C118.59 18.7502 120.163 17.1775 120.163 15.2345V3.51566C120.163 1.57408 118.589 0 116.648 0H104.929C102.987 0 101.413 1.57408 101.413 3.51566C101.413 5.45725 102.987 7.03133 104.929 7.03133Z" fill="#35B5B4"/>
<path d="M113.132 45.0743V74.9199C113.132 76.8582 114.709 78.4356 116.647 78.4356C118.586 78.4356 120.163 76.8582 120.163 74.9199V45.0743C120.163 43.136 118.586 41.5586 116.647 41.5586C114.709 41.5586 113.132 43.136 113.132 45.0743Z" fill="#35B5B4"/>
<path d="M113.132 104.766V112.969H104.929C104.807 112.969 104.687 112.975 104.569 112.987C104.509 112.993 104.45 113.005 104.391 113.014C104.334 113.023 104.276 113.029 104.22 113.04C104.155 113.053 104.092 113.072 104.029 113.089C103.98 113.102 103.931 113.112 103.884 113.127C103.831 113.143 103.78 113.165 103.728 113.184C103.672 113.204 103.615 113.222 103.561 113.245C103.53 113.258 103.502 113.274 103.472 113.287C103.398 113.321 103.324 113.354 103.253 113.393C103.246 113.397 103.239 113.402 103.232 113.406C102.247 113.949 101.55 114.951 101.431 116.125C101.419 116.243 101.413 116.363 101.413 116.485C101.413 118.426 102.987 120 104.929 120H116.648C118.589 120 120.163 118.426 120.163 116.485V104.766C120.163 102.824 118.589 101.25 116.648 101.25C114.706 101.25 113.132 102.824 113.132 104.766Z" fill="#35B5B4"/>
<path d="M75.0855 112.966H60.8279V62.8476C60.8279 60.906 59.2538 59.3319 57.3122 59.3319H7.19337V45.0743C7.19337 43.136 5.61601 41.5586 3.67771 41.5586C1.73941 41.5586 0.162048 43.136 0.162048 45.0743V116.482C0.162048 118.424 1.73613 119.998 3.67771 119.998H75.0855C77.0238 119.998 78.6012 118.42 78.6012 116.482C78.6012 114.544 77.0238 112.966 75.0855 112.966Z" fill="#35B5B4"/>
<path d="M7.19337 15.2345V7.03133H15.3966C17.3382 7.03133 18.9122 5.45725 18.9122 3.51566C18.9122 1.57408 17.3382 0 15.3966 0H3.67771C1.73613 0 0.162048 1.57408 0.162048 3.51566V15.2345C0.162048 17.1761 1.73613 18.7502 3.67771 18.7502C5.61929 18.7502 7.19337 17.1761 7.19337 15.2345Z" fill="#35B5B4"/>
<path d="M45.241 7.03132H75.0866C77.0249 7.03132 78.6023 5.45396 78.6023 3.51566C78.6023 1.57736 77.0249 0 75.0866 0H45.241C43.3027 0 41.7253 1.57736 41.7253 3.51566C41.7253 5.45396 43.3027 7.03132 45.241 7.03132Z" fill="#35B5B4"/>
<path d="M66.9545 48.2381C66.268 48.9246 65.9247 49.8244 65.9247 50.724C65.9247 51.6235 66.2678 52.5235 66.9545 53.2098C68.3275 54.5827 70.5534 54.5827 71.9264 53.2098L96.266 28.8701V36.9503C96.266 38.8919 97.8401 40.466 99.7817 40.466C101.723 40.466 103.297 38.8919 103.297 36.9503V20.3828C103.297 18.4413 101.723 16.8672 99.7817 16.8672H83.214C81.2724 16.8672 79.6983 18.4413 79.6983 20.3828C79.6983 22.3244 81.2724 23.8985 83.214 23.8985H91.2942L66.9545 48.2381Z" fill="#35B5B4"/>
</svg>
