<svg width="120" height="116" viewBox="0 0 120 116" fill="none" xmlns="http://www.w3.org/2000/svg">
<path d="M117.19 1.30412C116.224 0.611472 115.09 0.190443 113.906 0.0848723C112.722 -0.0206983 111.531 0.19305 110.458 0.70386L3.76244 51.2541C2.63695 51.8081 1.68844 52.6652 1.02372 53.729C0.359006 54.7929 0.00447378 56.0212 4.20625e-05 57.2756C-0.00438966 58.53 0.341456 59.7608 0.99864 60.8293C1.65582 61.8978 2.59825 62.7617 3.7198 63.3236L40.0994 80.8811L47.2168 114.26C47.3058 114.644 47.4978 114.997 47.7723 115.28C48.0467 115.564 48.3932 115.767 48.7745 115.868C49.1558 115.97 49.5575 115.965 49.9364 115.856C50.3154 115.746 50.6573 115.535 50.9255 115.246L51.633 114.453C53.733 112.051 59.0093 106.124 61.1942 103.669C61.5602 103.244 61.7445 102.692 61.7076 102.132C61.6707 101.572 61.4155 101.049 60.9969 100.676C60.5783 100.302 60.0298 100.107 59.4693 100.134C58.9088 100.161 58.3812 100.406 58 100.818C56.1492 102.888 52.3691 107.161 50.5183 109.222C50.5183 109.222 44.5281 81.159 44.5372 81.1383C44.4655 80.684 44.5218 80.2187 44.6998 79.7946C44.8778 79.3705 45.1704 79.0044 45.5449 78.7373L95.1945 26.2148L96.6094 24.7141C97.0023 24.3136 97.5364 24.0827 98.0973 24.0711C98.6583 24.0595 99.2015 24.2679 99.6107 24.6519C100.02 25.0358 100.262 25.5647 100.286 26.1253C100.31 26.6859 100.114 27.2336 99.7391 27.6511L48.9532 81.3741L49.8536 85.5759L99.675 109.608C100.576 110.047 101.566 110.274 102.569 110.272C104.211 110.264 105.793 109.656 107.017 108.562C108.241 107.468 109.023 105.964 109.215 104.334L119.955 7.47819C120.094 6.29534 119.91 5.097 119.423 4.0101C118.936 2.92319 118.164 1.98819 117.19 1.30412Z" fill="#35B5B4"/>
</svg>
