<svg width="16" height="21" viewBox="0 0 16 21" fill="none" xmlns="http://www.w3.org/2000/svg">
<path d="M7.06808e-05 7.62441C7.06808e-05 6.75973 0.151224 5.94283 0.449084 5.1804C0.733667 4.43986 1.15648 3.7602 1.69499 3.17762C2.2324 2.6027 2.84738 2.10555 3.52216 1.70055C4.21448 1.28171 4.964 0.965728 5.74722 0.762509C6.5399 0.554363 7.35612 0.449394 8.17567 0.4502C9.44158 0.4502 10.6197 0.718052 11.7122 1.25153C12.7905 1.77529 13.7083 2.57906 14.3696 3.57885C15.052 4.59579 15.391 5.74611 15.391 7.02869C15.391 7.79779 15.3154 8.55023 15.1609 9.28598C15.0093 10.0213 14.7681 10.7354 14.443 11.4121C14.133 12.0673 13.7278 12.6729 13.2404 13.2093C12.7506 13.7372 12.1574 14.1586 11.4977 14.4474C10.7815 14.7613 10.0068 14.9193 9.22485 14.9109C8.68137 14.9109 8.139 14.7831 7.60329 14.5263C7.06759 14.2707 6.68304 13.9195 6.45186 13.4694C6.37073 13.7817 6.25959 14.2329 6.11177 14.8231C5.96951 15.4121 5.87392 15.7922 5.83169 15.9645C5.78723 16.1357 5.70499 16.4213 5.58495 16.817C5.50355 17.1096 5.39912 17.3954 5.27265 17.6716L4.89032 18.4207C4.72497 18.7422 4.54013 19.0532 4.33683 19.3521C4.13566 19.6433 3.88671 19.9912 3.58996 20.3913L3.42435 20.4502L3.31432 20.3302C3.1954 19.0709 3.13427 18.3174 3.13427 18.0684C3.13427 17.3316 3.22208 16.5047 3.39546 15.5866C3.5655 14.6697 3.83447 13.5172 4.19568 12.1312C4.55689 10.7464 4.76362 9.93172 4.81919 9.69054C4.56467 9.17151 4.43575 8.49354 4.43575 7.65998C4.43575 6.99424 4.64358 6.37073 5.06036 5.7839C5.47826 5.1993 6.00618 4.90699 6.64636 4.90699C7.1365 4.90699 7.5166 5.06926 7.7889 5.39491C8.06231 5.71944 8.19568 6.12844 8.19568 6.62747C8.19568 7.15651 8.02007 7.92227 7.66664 8.92366C7.31321 9.92616 7.13761 10.6741 7.13761 11.171C7.13761 11.6744 7.31766 12.0957 7.67776 12.4257C8.03313 12.756 8.50309 12.935 8.98812 12.9248C9.42824 12.9248 9.83613 12.8247 10.2151 12.6236C10.5882 12.4283 10.9111 12.1495 11.1587 11.8089C11.698 11.069 12.0825 10.2279 12.289 9.336C12.3957 8.86698 12.478 8.4213 12.5291 8.0023C12.5836 7.58107 12.6069 7.18318 12.6069 6.8053C12.6069 5.41936 12.1668 4.33906 11.2921 3.56551C10.413 2.79196 9.2682 2.40741 7.86003 2.40741C6.25847 2.40741 4.91921 2.92533 3.84669 3.96451C2.77306 5.00035 2.23291 6.31738 2.23291 7.91449C2.23291 8.26681 2.28626 8.60691 2.3874 8.93589C2.48632 9.26376 2.59412 9.52494 2.71082 9.71833C2.82641 9.90838 2.93533 10.094 3.03425 10.2651C3.13427 10.4363 3.18651 10.5586 3.18651 10.6319C3.18651 10.8564 3.12761 11.1487 3.00868 11.5099C2.88532 11.8711 2.73972 12.0512 2.56412 12.0512C2.54744 12.0512 2.47854 12.039 2.3585 12.0134C1.94279 11.8893 1.56737 11.6573 1.27042 11.341C0.955266 11.0132 0.706549 10.6275 0.537997 10.2051C0.369926 9.78429 0.23902 9.34955 0.146778 8.90588C0.0471189 8.48607 -0.00213118 8.05588 7.06808e-05 7.62441Z" fill="#35B5B4"/>
</svg>
