<svg width="120" height="90" viewBox="0 0 120 90" fill="none" xmlns="http://www.w3.org/2000/svg">
<path d="M117.785 22.0422C106.913 21.994 96.3295 18.5387 87.525 12.161C85.8161 10.8994 83.6652 13.3047 81.742 14.3333C73.6768 19.3744 64.3581 22.0449 54.8491 22.0422C53.6357 22.0583 52.6607 23.044 52.6554 24.2574C52.6447 26.1806 52.6634 30.244 52.6554 32.1887C52.6554 37.1681 52.6554 45.1315 52.6554 50.111C52.6179 51.6163 52.6822 55.1761 52.6554 56.7136C52.6286 67.7788 59.7134 76.8163 69.9134 81.6136L85.3768 88.8565C85.9768 89.1217 86.6598 89.1217 87.2598 88.8565L102.745 81.6136C113.4 76.6288 120 67.2136 120 57.0458V24.2601C120.005 23.0413 119.02 22.0503 117.801 22.0449C117.796 22.0449 117.79 22.0449 117.785 22.0449V22.0422ZM112.468 55.4708C112.468 63.402 107.328 70.7547 99.0429 74.6333L87.2572 80.1484C86.6572 80.4136 85.9741 80.4136 85.3741 80.1484C73.6473 74.6386 60.6429 70.5779 60.1875 55.4708C60.1554 53.2502 60.209 32.0708 60.1875 30.5279C60.1875 29.3119 61.1652 28.3235 62.3813 28.3128C70.5563 28.2726 78.5143 25.669 85.133 20.869C86.7295 19.6931 88.7946 21.8226 90.0964 22.5297C96.15 26.3092 103.141 28.3128 110.277 28.3128C111.493 28.3181 112.476 29.3092 112.471 30.5253V55.4681L112.468 55.4708Z" fill="#35B5B4"/>
<path d="M86.3277 25.3623C79.8992 29.7471 72.3885 32.2757 64.6179 32.6748V55.4694C64.7679 67.5203 76.8054 71.1658 86.3277 75.6926C95.8581 71.1605 107.885 67.5257 108.038 55.4694V32.6748C100.267 32.2757 92.7563 29.7471 86.3277 25.3623ZM97.6125 44.1953L86.1697 59.115C85.35 59.9319 84.1259 60.1355 83.3063 59.5221L75.5411 53.5944C74.7242 52.7775 74.3143 51.5507 75.1313 50.7337C75.9483 49.9168 77.1751 49.7132 77.992 50.3266L84.1259 55.0275L94.3447 41.7418C95.1616 40.9248 96.3884 40.7185 97.2054 41.3319C98.0224 42.1516 98.2259 43.3757 97.6125 44.1953Z" fill="#35B5B4"/>
<path d="M71.4642 14.5553C74.2419 13.5214 76.9017 12.1928 79.3954 10.5911L77.9543 7.64464C75.6856 2.97589 70.9579 0.0107143 65.7695 0H29.108C23.9196 0.0107143 19.1919 2.97589 16.9231 7.64196C14.5285 12.5893 11.6758 18.3937 9.30261 23.3491C11.8606 23.2928 48.3133 23.3277 48.3133 23.3277C48.7526 20.0625 51.5329 17.625 54.8249 17.6116C60.5088 17.5982 66.1445 16.5616 71.4615 14.5553H71.4642Z" fill="#35B5B4"/>
<path d="M48.2249 56.7093H33.7151C32.6437 56.1093 32.2607 54.7539 32.858 53.6825C33.2437 52.9941 33.9669 52.5601 34.7544 52.5441H48.2223V50.1066H34.7544C33.5303 50.0878 32.5526 49.0834 32.5714 47.8593C32.5874 46.6593 33.5571 45.6923 34.7544 45.6762H48.2223C48.1901 40.6378 48.2437 32.7387 48.2223 27.7539C47.9303 27.8423 5.30621 27.3468 6.92943 28.2414C3.16336 29.4736 0.616038 32.9852 0.616038 36.9468V49.9727C0.610681 54.6521 2.71068 59.0851 6.33211 62.045C11.6625 66.861 19.7651 65.345 26.3357 65.5673H49.5508C48.8678 62.6557 48.4232 59.6905 48.2223 56.7066L48.2249 56.7093ZM23.4803 38.3664C27.15 39.4619 29.6571 42.845 29.6383 46.6727C29.6357 47.8941 28.6446 48.8852 27.4232 48.8878H14.4642C11.9705 48.8825 9.85175 47.0557 9.47943 44.5914V40.161C9.88389 37.4075 12.4473 35.503 15.2009 35.9075C15.4392 35.9423 15.675 35.9932 15.9053 36.0628C17.1107 36.4325 22.1812 37.97 23.4803 38.3664Z" fill="#35B5B4"/>
<path d="M5.18304 21.688C6.24375 19.4996 11.4295 8.79607 11.4295 8.79607C10.7679 8.59517 10.0821 8.49071 9.39107 8.48535H5.40268C2.42144 8.48803 0.00268795 10.9068 9.37924e-06 13.8907V16.2827C-0.00534776 19.1836 2.28483 21.5728 5.18304 21.688Z" fill="#35B5B4"/>
<path d="M16.216 70.002C12.7553 70.002 9.35085 69.1101 6.33478 67.4092C5.68924 71.3011 8.32228 74.9761 12.2116 75.6217C12.5464 75.6779 12.8839 75.7101 13.2241 75.7154H19.4491C22.7973 75.7154 25.6607 73.302 26.2285 69.9994C23.7615 69.9994 18.6991 69.9994 16.216 69.9994V70.002Z" fill="#35B5B4"/>
<path d="M14.4428 40.2725C14.0597 40.3421 13.9071 40.4546 13.8455 40.8939V43.8189C13.8455 44.1671 14.1187 44.451 14.4669 44.4617H24.5919C24.0535 43.5671 23.199 42.9028 22.1999 42.6001L14.6249 40.318C14.5687 40.2966 14.5097 40.2805 14.4481 40.2725H14.4428Z" fill="#35B5B4"/>
</svg>
