<svg width="120" height="120" viewBox="0 0 120 120" fill="none" xmlns="http://www.w3.org/2000/svg">
<path d="M59.9998 12.8571C61.1365 12.8571 62.2266 12.4056 63.0303 11.6019C63.834 10.7982 64.2855 9.70807 64.2855 8.57143V4.28571C64.2855 3.14907 63.834 2.05898 63.0303 1.25526C62.2266 0.451529 61.1365 0 59.9998 0C58.8632 0 57.7731 0.451529 56.9694 1.25526C56.1656 2.05898 55.7141 3.14907 55.7141 4.28571V8.57143C55.7141 9.70807 56.1656 10.7982 56.9694 11.6019C57.7731 12.4056 58.8632 12.8571 59.9998 12.8571Z" fill="#35B5B4"/>
<path d="M26.6658 24.1533C27.4741 24.9339 28.5566 25.3659 29.6803 25.3561C30.804 25.3464 31.879 24.8957 32.6736 24.1011C33.4682 23.3064 33.9189 22.2315 33.9287 21.1078C33.9384 19.9841 33.5064 18.9016 32.7258 18.0933L29.6958 15.0633C29.3004 14.6539 28.8275 14.3274 28.3046 14.1028C27.7818 13.8782 27.2194 13.76 26.6503 13.755C26.0813 13.7501 25.517 13.8585 24.9903 14.074C24.4636 14.2895 23.985 14.6077 23.5826 15.0101C23.1803 15.4125 22.862 15.891 22.6465 16.4177C22.431 16.9444 22.3226 17.5088 22.3276 18.0778C22.3325 18.6469 22.4507 19.2093 22.6753 19.7321C22.8999 20.255 23.2264 20.7279 23.6358 21.1233L26.6658 24.1533Z" fill="#35B5B4"/>
<path d="M12.857 55.715H17.1427C18.2794 55.715 19.3694 55.2635 20.1732 54.4597C20.9769 53.656 21.4284 52.5659 21.4284 51.4293C21.4284 50.2926 20.9769 49.2025 20.1732 48.3988C19.3694 47.5951 18.2794 47.1436 17.1427 47.1436H12.857C11.7204 47.1436 10.6303 47.5951 9.82655 48.3988C9.02282 49.2025 8.57129 50.2926 8.57129 51.4293C8.57129 52.5659 9.02282 53.656 9.82655 54.4597C10.6303 55.2635 11.7204 55.715 12.857 55.715Z" fill="#35B5B4"/>
<path d="M90.3043 25.4111C91.4409 25.4108 92.5308 24.9591 93.3343 24.1554L96.3643 21.1254C97.145 20.3171 97.577 19.2345 97.5672 18.1108C97.5575 16.9871 97.1067 15.9122 96.3121 15.1176C95.5175 14.323 94.4426 13.8722 93.3189 13.8625C92.1952 13.8527 91.1126 14.2847 90.3043 15.0654L87.2743 18.0954C86.6752 18.6947 86.2671 19.4583 86.1018 20.2895C85.9365 21.1207 86.0214 21.9823 86.3457 22.7653C86.67 23.5483 87.2192 24.2176 87.9238 24.6885C88.6284 25.1594 89.4568 25.4109 90.3043 25.4111Z" fill="#35B5B4"/>
<path d="M102.857 55.715H107.143C108.279 55.715 109.369 55.2635 110.173 54.4597C110.977 53.656 111.428 52.5659 111.428 51.4293C111.428 50.2926 110.977 49.2025 110.173 48.3988C109.369 47.5951 108.279 47.1436 107.143 47.1436H102.857C101.72 47.1436 100.63 47.5951 99.8265 48.3988C99.0228 49.2025 98.5713 50.2926 98.5713 51.4293C98.5713 52.5659 99.0228 53.656 99.8265 54.4597C100.63 55.2635 101.72 55.715 102.857 55.715Z" fill="#35B5B4"/>
<path d="M32.1 62.4011C35.0372 62.5131 37.947 61.8005 40.5 60.344C46.4879 57.175 53.1837 55.5821 59.9572 55.7154C66.7376 55.5961 73.4405 57.1724 79.4572 60.3011C81.9958 61.7971 84.9132 62.5265 87.8572 62.4011H87.9C89.2907 58.9106 90.0034 55.187 90 51.4297C90 43.4732 86.8393 35.8426 81.2132 30.2165C75.5871 24.5904 67.9565 21.4297 60 21.4297C52.0435 21.4297 44.4129 24.5904 38.7868 30.2165C33.1607 35.8426 30 43.4732 30 51.4297C29.9966 55.187 30.7094 58.9106 32.1 62.4011Z" fill="#35B5B4"/>
<path d="M117.034 66.6732C116.097 65.8646 114.997 65.2667 113.809 64.9199C112.621 64.5732 111.372 64.4856 110.147 64.6632C106.577 65.2222 103.124 66.3661 99.9257 68.0489C96.228 70.0787 92.0566 71.0876 87.84 70.9718C83.6248 71.0872 79.4548 70.0784 75.7586 68.0489C70.9053 65.4619 65.4684 64.1662 59.97 64.286C54.4742 64.1653 49.0399 65.4612 44.19 68.0489C40.4953 70.0784 36.3267 71.0873 32.1129 70.9718C27.9058 71.0872 23.7442 70.0782 20.0571 68.0489C16.8652 66.3665 13.4174 65.2226 9.85286 64.6632C8.63222 64.483 7.38709 64.5676 6.20207 64.9113C5.01704 65.2551 3.9199 65.8499 2.98517 66.6553C2.05045 67.4607 1.30004 68.4579 0.78495 69.5792C0.269857 70.7004 0.00214429 71.9193 0 73.1532V83.3146C5.78946 83.1881 11.5237 84.4628 16.7143 87.0303C20.8164 89.1094 25.373 90.1303 29.97 90.0003C34.5654 90.1274 39.1199 89.1066 43.2214 87.0303C48.422 84.4608 54.1664 83.1861 59.9657 83.3146C65.7677 83.1862 71.5149 84.4609 76.7186 87.0303C80.8296 89.1102 85.3947 90.131 90 90.0003C94.6068 90.1317 99.1734 89.1109 103.286 87.0303C108.478 84.467 114.211 83.1925 120 83.3146V73.1532C119.999 71.9236 119.734 70.7085 119.223 69.5904C118.711 68.4723 117.964 67.4774 117.034 66.6732Z" fill="#35B5B4"/>
<path d="M90 98.5718C84.198 98.7002 78.4508 97.4254 73.2471 94.8561C69.1413 92.779 64.5824 91.7582 59.9829 91.8861C55.3861 91.7586 50.8301 92.7794 46.7271 94.8561C41.5227 97.4276 35.7736 98.7024 29.97 98.5718C24.1806 98.698 18.4464 97.4232 13.2557 94.8561C9.15371 92.7768 4.59704 91.7559 0 91.8861V115.715C0 116.851 0.451529 117.941 1.25526 118.745C2.05898 119.549 3.14907 120 4.28571 120H115.714C116.851 120 117.941 119.549 118.745 118.745C119.548 117.941 120 116.851 120 115.715V91.8861C115.4 91.7582 110.842 92.779 106.736 94.8561C101.537 97.4228 95.7962 98.6974 90 98.5718Z" fill="#35B5B4"/>
</svg>
