<svg width="20" height="17" viewBox="0 0 20 17" fill="none" xmlns="http://www.w3.org/2000/svg">
<path d="M20 2.38026C19.2645 2.69753 18.4641 2.92587 17.6397 3.0148C18.4956 2.50629 19.1366 1.70294 19.4424 0.755457C18.6392 1.23326 17.7593 1.5683 16.8417 1.74572C16.4582 1.33574 15.9944 1.00913 15.4792 0.78624C14.9639 0.563353 14.4083 0.448965 13.8469 0.450205C11.5755 0.450205 9.74883 2.29133 9.74883 4.55067C9.74883 4.86794 9.78729 5.18521 9.84978 5.49047C6.44874 5.3126 3.41546 3.6878 1.39887 1.20012C1.03143 1.82772 0.838874 2.54232 0.841245 3.26958C0.841245 4.69248 1.56472 5.94714 2.66795 6.68503C2.0178 6.65943 1.38287 6.48073 0.814806 6.16346V6.21394C0.814806 8.20648 2.22329 9.85773 4.10047 10.2375C3.74801 10.329 3.38543 10.3759 3.02127 10.3769C2.75448 10.3769 2.5021 10.3505 2.24733 10.3144C2.76649 11.9392 4.27833 13.1194 6.0786 13.1578C4.67011 14.261 2.9059 14.91 0.990266 14.91C0.646557 14.91 0.329287 14.898 0 14.8595C1.81709 16.0253 3.97308 16.6983 6.29492 16.6983C13.8325 16.6983 17.957 10.4538 17.957 5.03379C17.957 4.85593 17.957 4.67806 17.945 4.5002C18.7429 3.91614 19.4424 3.19266 20 2.38026Z" fill="#35B5B4"/>
</svg>
