<svg width="19" height="19" viewBox="0 0 19 19" fill="none" xmlns="http://www.w3.org/2000/svg">
<path fill-rule="evenodd" clip-rule="evenodd" d="M11.7682 10.6106C11.4086 10.7576 11.1789 11.3205 10.9458 11.6081C10.8263 11.7554 10.6838 11.7785 10.5001 11.7046C9.15048 11.1669 8.11588 10.2663 7.3711 9.02421C7.24492 8.83161 7.26756 8.67947 7.41971 8.5006C7.64459 8.23564 7.92736 7.93469 7.98822 7.57769C8.1233 6.78801 7.09092 4.33843 5.72753 5.44837C1.80435 8.64533 12.2721 17.1244 14.1613 12.5385C14.6957 11.2385 12.3641 10.3664 11.7682 10.6106ZM9.50005 17.3404C8.11254 17.3404 6.74729 16.9715 5.552 16.2731C5.36015 16.1607 5.12822 16.131 4.91373 16.1893L2.31645 16.9021L3.22118 14.909C3.34438 14.6377 3.31284 14.3219 3.13879 14.0807C2.17099 12.7392 1.65925 11.1554 1.65925 9.49995C1.65925 5.17636 5.17646 1.65915 9.50005 1.65915C13.8236 1.65915 17.3405 5.17636 17.3405 9.49995C17.3405 13.8232 13.8233 17.3404 9.50005 17.3404ZM9.50005 0C4.26172 0 9.93163e-05 4.26162 9.93163e-05 9.49995C9.93163e-05 11.3428 0.523339 13.1125 1.51749 14.6485L0.0743177 17.8269C-0.0589043 18.1204 -0.0102912 18.464 0.198262 18.7086C0.358574 18.896 0.590506 18.9999 0.829861 18.9999C1.36497 18.9999 4.28287 18.0829 5.02542 17.8792C6.39809 18.6136 7.93775 18.9999 9.50005 18.9999C14.738 18.9999 19 14.7379 19 9.49995C19 4.26162 14.738 0 9.50005 0Z" fill="#35B5B4"/>
</svg>
